<?xml version="1.0" encoding="utf-8"?>
<!-- Generator: Adobe Illustrator 25.2.1, SVG Export Plug-In . SVG Version: 6.00 Build 0)  -->
<svg version="1.1" id="圖層_1" xmlns="http://www.w3.org/2000/svg" xmlns:xlink="http://www.w3.org/1999/xlink" x="0px" y="0px"
	 viewBox="0 0 203 91" style="enable-background:new 0 0 203 91;" xml:space="preserve">
<style type="text/css">
	.st0{fill:#FFFFFF;}
	.st1{display:none;fill:#343F52;}
	.st2{display:none;fill:#60697B;}
	.st3{clip-path:url(#SVGID_2_);}
	.st4{fill:#36496D;}
	.st5{fill:#E3A6B6;}
	.st6{fill:#60697B;}
</style>
<path class="st0" d="M25,0L178,0c13.8,0,25,11.2,25,25V66c0,13.8-11.2,25-25,25H25C11.2,91,0,79.8,0,66V25C0,11.2,11.2,0,25,0z"/>
<path class="st1" d="M85.1,43v-2.3l6.8-6c0.5-0.5,0.9-0.9,1.1-1.3s0.3-0.8,0.3-1.2c0-0.5-0.1-1-0.3-1.4c-0.2-0.4-0.5-0.7-0.9-1
	c-0.4-0.2-0.9-0.4-1.4-0.4c-0.6,0-1,0.1-1.5,0.4c-0.4,0.2-0.7,0.6-1,1c-0.2,0.4-0.3,0.9-0.3,1.4h-2.7c0-1.1,0.2-2,0.7-2.8
	c0.5-0.8,1.1-1.4,2-1.8c0.8-0.4,1.8-0.6,2.9-0.6c1,0,1.9,0.2,2.7,0.7c0.8,0.4,1.4,1.1,1.9,1.9c0.5,0.8,0.7,1.7,0.7,2.7
	c0,0.8-0.1,1.4-0.3,1.9c-0.2,0.5-0.5,1-0.9,1.4c-0.4,0.4-0.9,0.9-1.5,1.4l-4.8,4.3l-0.2-0.7H96V43H85.1z M103.3,43.3
	c-0.8,0-1.6-0.2-2.3-0.5c-0.7-0.3-1.3-0.8-1.8-1.4c-0.5-0.6-0.9-1.3-1.1-2l2.6-0.7c0.1,0.4,0.3,0.8,0.6,1.1c0.3,0.3,0.6,0.5,1,0.7
	c0.4,0.2,0.8,0.3,1.2,0.3c0.5,0,1-0.1,1.4-0.4c0.4-0.2,0.8-0.6,1-1c0.2-0.4,0.4-0.9,0.4-1.4c0-0.5-0.1-1-0.4-1.4
	c-0.2-0.4-0.6-0.8-1-1c-0.4-0.2-0.9-0.4-1.4-0.4c-0.6,0-1.1,0.1-1.5,0.3c-0.4,0.2-0.7,0.5-0.9,0.7l-2.3-0.7l0.5-8.4h8.6v2.5h-7.2
	l1-0.9l-0.4,5.8l-0.5-0.6c0.4-0.4,0.9-0.7,1.4-0.8c0.5-0.2,1.1-0.3,1.6-0.3c1,0,1.9,0.2,2.6,0.7c0.8,0.4,1.4,1.1,1.8,1.8
	c0.4,0.8,0.7,1.7,0.7,2.7c0,1-0.3,1.9-0.8,2.7c-0.5,0.8-1.2,1.4-2,1.9C105.3,43.1,104.3,43.3,103.3,43.3z M117.2,43.3
	c-1.1,0-2.1-0.2-3-0.7c-0.9-0.5-1.5-1.2-2-2c-0.5-0.9-0.7-1.8-0.7-3v-5.1c0-1.1,0.2-2.1,0.7-3c0.5-0.9,1.2-1.5,2-2
	c0.9-0.5,1.8-0.7,3-0.7s2.1,0.2,3,0.7c0.9,0.5,1.5,1.1,2,2s0.7,1.8,0.7,3v5.1c0,1.1-0.2,2.1-0.7,3c-0.5,0.9-1.2,1.5-2,2
	C119.3,43.1,118.4,43.3,117.2,43.3z M117.2,40.8c0.6,0,1.1-0.1,1.5-0.4c0.5-0.3,0.8-0.6,1.1-1.1c0.3-0.5,0.4-1,0.4-1.5v-5.5
	c0-0.6-0.1-1.1-0.4-1.5c-0.3-0.5-0.6-0.8-1.1-1.1c-0.5-0.3-1-0.4-1.5-0.4s-1.1,0.1-1.5,0.4c-0.5,0.3-0.8,0.6-1.1,1.1
	c-0.3,0.4-0.4,1-0.4,1.5v5.5c0,0.6,0.1,1.1,0.4,1.5c0.3,0.4,0.6,0.8,1.1,1.1C116.2,40.7,116.7,40.8,117.2,40.8z M129.7,40.1v-3.9
	h-3.9V34h3.9v-3.9h2.1V34h3.9v2.1h-3.9v3.9H129.7z"/>
<path class="st2" d="M86,67V56.9h3.9c0.1,0,0.2,0,0.3,0c0.1,0,0.3,0,0.4,0c0.5,0.1,1,0.3,1.3,0.6c0.4,0.3,0.6,0.6,0.8,1.1
	C92.9,59,93,59.5,93,60c0,0.5-0.1,1-0.3,1.4c-0.2,0.4-0.5,0.8-0.8,1.1c-0.4,0.3-0.8,0.5-1.3,0.5c-0.1,0-0.3,0-0.4,0
	c-0.1,0-0.2,0-0.3,0H87V67H86z M87,62.2h2.8c0.1,0,0.2,0,0.3,0c0.1,0,0.2,0,0.3,0c0.3-0.1,0.6-0.2,0.8-0.4c0.2-0.2,0.4-0.5,0.5-0.7
	c0.1-0.3,0.2-0.6,0.2-0.9s-0.1-0.6-0.2-0.9c-0.1-0.3-0.3-0.5-0.5-0.8c-0.2-0.2-0.5-0.4-0.8-0.4c-0.1,0-0.2,0-0.3,0
	c-0.1,0-0.2,0-0.3,0H87V62.2z M94.6,67v-7.6h0.9v1.8L95.3,61c0.1-0.2,0.2-0.4,0.3-0.6c0.1-0.2,0.3-0.3,0.4-0.5
	c0.2-0.2,0.4-0.3,0.7-0.4c0.3-0.1,0.5-0.1,0.8-0.2c0.3,0,0.5,0,0.7,0.1v1c-0.3-0.1-0.6-0.1-0.9,0c-0.3,0-0.6,0.2-0.9,0.4
	c-0.3,0.2-0.4,0.4-0.6,0.7c-0.1,0.3-0.2,0.6-0.3,0.9c0,0.3-0.1,0.6-0.1,0.9V67H94.6z M102.8,67.2c-0.8,0-1.4-0.2-1.9-0.5
	c-0.5-0.3-0.9-0.8-1.2-1.4c-0.3-0.6-0.4-1.3-0.4-2.1c0-0.8,0.1-1.5,0.4-2.1c0.3-0.6,0.7-1.1,1.2-1.4c0.5-0.3,1.2-0.5,1.9-0.5
	c0.8,0,1.4,0.2,1.9,0.5c0.5,0.3,0.9,0.8,1.2,1.4c0.3,0.6,0.4,1.3,0.4,2.1c0,0.8-0.1,1.5-0.4,2.1c-0.3,0.6-0.7,1.1-1.2,1.4
	C104.2,67,103.5,67.2,102.8,67.2z M102.8,66.2c0.8,0,1.5-0.3,1.9-0.8c0.4-0.6,0.6-1.3,0.6-2.2c0-0.9-0.2-1.6-0.6-2.2
	c-0.4-0.5-1-0.8-1.9-0.8c-0.6,0-1,0.1-1.4,0.4c-0.4,0.3-0.6,0.6-0.8,1.1c-0.2,0.4-0.3,1-0.3,1.6c0,0.9,0.2,1.6,0.6,2.2
	C101.3,65.9,102,66.2,102.8,66.2z M106.9,70.4v-1h0.4c0.3,0,0.6-0.1,0.8-0.3c0.2-0.2,0.3-0.5,0.3-0.9v-8.8h1v9
	c0,0.6-0.2,1.1-0.5,1.4c-0.3,0.3-0.8,0.5-1.4,0.5H106.9z M108.5,58v-1.2h1V58H108.5z M114.9,67.2c-0.7,0-1.4-0.2-1.9-0.5
	c-0.5-0.3-1-0.8-1.3-1.4c-0.3-0.6-0.4-1.3-0.4-2.1c0-0.8,0.1-1.5,0.4-2.1c0.3-0.6,0.7-1.1,1.2-1.4c0.5-0.3,1.2-0.5,1.9-0.5
	c0.7,0,1.4,0.2,1.9,0.5c0.5,0.3,0.9,0.8,1.2,1.5c0.3,0.6,0.4,1.4,0.4,2.3h-1.1v-0.4c0-1-0.2-1.7-0.6-2.2c-0.4-0.5-1-0.7-1.8-0.7
	c-0.8,0-1.4,0.3-1.9,0.8c-0.4,0.5-0.6,1.3-0.6,2.3c0,1,0.2,1.7,0.6,2.2c0.4,0.5,1,0.8,1.8,0.8c0.5,0,1-0.1,1.4-0.4
	c0.4-0.3,0.7-0.6,1-1.1l1,0.4c-0.3,0.7-0.7,1.2-1.3,1.5C116.3,67,115.6,67.2,114.9,67.2z M112,63.5v-0.9h5.8v0.9H112z M123.2,67.2
	c-0.8,0-1.4-0.2-1.9-0.5c-0.5-0.3-0.9-0.8-1.2-1.4c-0.3-0.6-0.4-1.3-0.4-2.1c0-0.8,0.2-1.5,0.4-2.1c0.3-0.6,0.7-1.1,1.2-1.4
	c0.5-0.3,1.2-0.5,1.9-0.5c0.8,0,1.4,0.2,2,0.6c0.6,0.4,1,0.9,1.2,1.5l-1,0.3c-0.2-0.5-0.5-0.8-0.8-1c-0.4-0.3-0.8-0.4-1.3-0.4
	c-0.6,0-1,0.1-1.4,0.4c-0.4,0.3-0.6,0.6-0.8,1.1c-0.2,0.5-0.3,1-0.3,1.6c0,0.9,0.2,1.6,0.6,2.2c0.4,0.5,1,0.8,1.8,0.8
	c0.5,0,0.9-0.1,1.3-0.3c0.4-0.2,0.6-0.6,0.8-1l1,0.3c-0.3,0.7-0.7,1.2-1.2,1.5C124.6,67,123.9,67.2,123.2,67.2z M132,67
	c-0.4,0.1-0.8,0.1-1.3,0.1c-0.4,0-0.8-0.1-1.1-0.3c-0.3-0.2-0.6-0.4-0.7-0.7c-0.1-0.3-0.2-0.6-0.2-0.8c0-0.3,0-0.6,0-1v-6.9h1v6.9
	c0,0.3,0,0.6,0,0.8c0,0.2,0.1,0.4,0.1,0.6c0.2,0.3,0.4,0.5,0.8,0.6c0.4,0.1,0.8,0,1.4,0V67z M127.1,60.3v-0.9h5v0.9H127.1z
	 M136.5,67.2c-0.9,0-1.6-0.2-2.2-0.6c-0.6-0.4-0.9-0.9-1.1-1.6l1.1-0.2c0.1,0.4,0.4,0.8,0.8,1c0.4,0.3,0.9,0.4,1.5,0.4
	c0.6,0,1-0.1,1.4-0.4c0.3-0.2,0.5-0.6,0.5-1c0-0.2-0.1-0.4-0.2-0.6c-0.1-0.1-0.3-0.3-0.6-0.4c-0.3-0.1-0.8-0.3-1.4-0.4
	c-0.7-0.2-1.2-0.4-1.6-0.6c-0.4-0.2-0.7-0.4-0.8-0.6c-0.2-0.2-0.2-0.5-0.2-0.9c0-0.4,0.1-0.8,0.4-1.1c0.2-0.3,0.6-0.6,1-0.8
	c0.4-0.2,0.9-0.3,1.5-0.3s1.1,0.1,1.5,0.3c0.5,0.2,0.8,0.4,1.1,0.8c0.3,0.3,0.4,0.7,0.5,1.2l-1.1,0.2c-0.1-0.4-0.3-0.8-0.7-1
	c-0.4-0.3-0.8-0.4-1.4-0.4c-0.5,0-1,0.1-1.3,0.3c-0.3,0.2-0.5,0.5-0.5,0.9c0,0.2,0.1,0.4,0.2,0.5c0.1,0.1,0.3,0.3,0.7,0.4
	c0.3,0.1,0.8,0.3,1.4,0.4c0.7,0.2,1.2,0.4,1.6,0.6c0.4,0.2,0.7,0.4,0.8,0.7s0.3,0.6,0.3,1c0,0.7-0.3,1.3-0.8,1.7
	C138.1,67,137.4,67.2,136.5,67.2z M144.1,67V56.9h3.1c0.1,0,0.3,0,0.5,0c0.3,0,0.5,0,0.7,0.1c0.8,0.1,1.4,0.4,1.9,0.9
	c0.5,0.5,0.9,1,1.2,1.8c0.3,0.7,0.4,1.5,0.4,2.4s-0.1,1.6-0.4,2.4c-0.3,0.7-0.6,1.3-1.2,1.8c-0.5,0.5-1.2,0.7-1.9,0.9
	c-0.2,0-0.5,0-0.7,0.1c-0.3,0-0.4,0-0.5,0H144.1z M145.2,66h2c0.2,0,0.4,0,0.6,0c0.2,0,0.4,0,0.6-0.1c0.6-0.1,1.1-0.3,1.4-0.7
	c0.4-0.4,0.6-0.8,0.8-1.4c0.2-0.6,0.3-1.2,0.3-1.9c0-0.7-0.1-1.3-0.3-1.9s-0.4-1-0.8-1.4c-0.4-0.4-0.8-0.6-1.4-0.7
	c-0.2,0-0.4-0.1-0.6-0.1c-0.2,0-0.4,0-0.6,0h-2V66z M156.8,67.2c-0.8,0-1.4-0.2-1.9-0.5c-0.5-0.3-0.9-0.8-1.2-1.4
	c-0.3-0.6-0.4-1.3-0.4-2.1c0-0.8,0.1-1.5,0.4-2.1c0.3-0.6,0.7-1.1,1.2-1.4c0.5-0.3,1.2-0.5,1.9-0.5c0.8,0,1.4,0.2,1.9,0.5
	c0.5,0.3,0.9,0.8,1.2,1.4c0.3,0.6,0.4,1.3,0.4,2.1c0,0.8-0.1,1.5-0.4,2.1c-0.3,0.6-0.7,1.1-1.2,1.4C158.2,67,157.6,67.2,156.8,67.2z
	 M156.8,66.2c0.8,0,1.5-0.3,1.9-0.8c0.4-0.6,0.6-1.3,0.6-2.2c0-0.9-0.2-1.6-0.6-2.2c-0.4-0.5-1-0.8-1.9-0.8c-0.6,0-1,0.1-1.4,0.4
	c-0.4,0.3-0.6,0.6-0.8,1.1c-0.2,0.4-0.3,1-0.3,1.6c0,0.9,0.2,1.6,0.6,2.2C155.4,65.9,156,66.2,156.8,66.2z M167.5,67v-3.9
	c0-0.4,0-0.8-0.1-1.2c-0.1-0.4-0.2-0.7-0.4-0.9c-0.2-0.3-0.4-0.5-0.7-0.6c-0.3-0.1-0.6-0.2-1-0.2c-0.4,0-0.7,0.1-1,0.2
	c-0.3,0.1-0.5,0.3-0.7,0.5c-0.2,0.2-0.3,0.5-0.4,0.9c-0.1,0.3-0.1,0.7-0.1,1.1l-0.7-0.2c0-0.8,0.1-1.4,0.4-2
	c0.3-0.5,0.6-0.9,1.1-1.2c0.5-0.3,1-0.4,1.6-0.4c0.5,0,0.8,0.1,1.2,0.2c0.3,0.1,0.6,0.3,0.9,0.6c0.2,0.2,0.4,0.5,0.6,0.8
	c0.1,0.3,0.2,0.6,0.3,1c0.1,0.3,0.1,0.7,0.1,1V67H167.5z M162.1,67v-7.6h0.9v1.9h0.1V67H162.1z M173.7,67.2c-0.7,0-1.4-0.2-1.9-0.5
	c-0.5-0.3-1-0.8-1.3-1.4c-0.3-0.6-0.4-1.3-0.4-2.1c0-0.8,0.1-1.5,0.4-2.1c0.3-0.6,0.7-1.1,1.2-1.4c0.5-0.3,1.2-0.5,1.9-0.5
	c0.7,0,1.4,0.2,1.9,0.5c0.5,0.3,0.9,0.8,1.2,1.5c0.3,0.6,0.4,1.4,0.4,2.3h-1v-0.4c0-1-0.2-1.7-0.6-2.2c-0.4-0.5-1-0.7-1.8-0.7
	c-0.8,0-1.4,0.3-1.9,0.8c-0.4,0.5-0.6,1.3-0.6,2.3c0,1,0.2,1.7,0.6,2.2c0.4,0.5,1,0.8,1.8,0.8c0.5,0,1-0.1,1.4-0.4
	c0.4-0.3,0.7-0.6,1-1.1l1,0.4c-0.3,0.7-0.7,1.2-1.3,1.5C175.1,67,174.4,67.2,173.7,67.2z M170.8,63.5v-0.9h5.8v0.9H170.8z"/>
<g>
	<g>
		<defs>
			<rect id="SVGID_1_" x="12" y="23.5" width="44" height="44"/>
		</defs>
		<clipPath id="SVGID_2_">
			<use xlink:href="#SVGID_1_"  style="overflow:visible;"/>
		</clipPath>
		<g class="st3">
			<path class="st4" d="M34,67.5c-12.1,0-22-9.9-22-22c0-5.4,2-10.5,5.5-14.6c0.5-0.5,1.3-0.6,1.8-0.1c0.5,0.5,0.6,1.3,0.1,1.8
				c-3.1,3.5-4.9,8.1-4.9,12.8c0,10.7,8.7,19.4,19.4,19.4s19.4-8.7,19.4-19.4c0-10.7-8.7-19.4-19.4-19.4c-2.9,0-5.8,0.7-8.5,1.9
				c-0.6,0.3-1.4,0-1.7-0.6c-0.3-0.6,0-1.4,0.6-1.7c3-1.5,6.3-2.2,9.6-2.2c12.1,0,22,9.9,22,22S46.1,67.5,34,67.5z"/>
			<path class="st5" d="M49.5,45.5c0,8.6-7,15.5-15.5,15.5s-15.5-7-15.5-15.5S25.4,30,34,30S49.5,36.9,49.5,45.5z"/>
			<path class="st4" d="M34,62.3c-9.3,0-16.8-7.5-16.8-16.8c0-9.3,7.5-16.8,16.8-16.8c9.3,0,16.8,7.5,16.8,16.8
				C50.8,54.8,43.3,62.3,34,62.3L34,62.3z M34,31.3c-7.9,0-14.2,6.4-14.2,14.2S26.1,59.7,34,59.7s14.2-6.4,14.2-14.2
				S41.8,31.3,34,31.3L34,31.3z"/>
			<path class="st4" d="M33.6,50c-0.9,0-1.8-0.4-2.5-1l-3.5-3.5c-0.5-0.5-0.5-1.3,0-1.8c0.5-0.5,1.3-0.5,1.8,0l3.5,3.5
				c0.4,0.4,1,0.4,1.4,0l5.3-5.4c0.5-0.5,1.3-0.5,1.8,0c0.5,0.5,0.5,1.3,0,1.8L36.1,49C35.4,49.6,34.5,50,33.6,50z"/>
		</g>
	</g>
	<g>
		<g>
			<path class="st6" d="M82.4,37.7l3-10.5H87l3,10.5h-1.3l-0.8-3h-3.3l-0.8,3H82.4z M87.5,33.6L86.2,28l-1.4,5.6H87.5z"/>
			<path class="st6" d="M101.2,30.7v-0.9h1.1v6.8c0,0.3,0,0.6-0.1,0.7c-0.1,0.3-0.2,0.7-0.5,1.3c-0.5,0.7-1.2,1-2.1,1
				c-1.4,0-2.2-0.7-2.4-1.9h1c0,0.7,0.5,1,1.3,1c1,0,1.5-0.5,1.6-1.5c0-0.2,0.1-0.4,0.1-0.6h-0.1c-0.4,0.7-1,1-1.7,1
				c-1.7,0-2.5-1.3-2.5-4c0-2.7,0.9-4,2.5-4C100.2,29.6,100.8,30,101.2,30.7z M99.7,30.5c-1.1,0-1.6,1.1-1.5,3.2
				c0,2.2,0.4,3.2,1.4,3.2c1.2,0,1.7-1.1,1.6-3.3C101.2,31.6,100.7,30.6,99.7,30.5z"/>
			<path class="st6" d="M106.9,28.6h-1.1v-1.4h1.1V28.6z M106.9,37.7h-1.1v-7.8h1.1V37.7z"/>
			<path class="st6" d="M111.4,29.9v1.3h0.1c0.4-1,1.1-1.5,2.2-1.4v1.1c-1.4-0.2-2.2,0.5-2.2,2.1v4.7h-1.1v-7.8H111.4z"/>
			<path class="st6" d="M117.4,37.7h-1.1V27.2h1.1V37.7z"/>
			<path class="st6" d="M129.9,29.9l1.3,6.8l1.4-6.8h1.1l-1.9,7.8h-1.1l-1.3-6.8h-0.1l-1.3,6.8h-1.1l-2-7.8h1.1l1.4,6.8l1.3-6.8
				H129.9z"/>
			<path class="st6" d="M141.2,36.9v0.8c-0.1,0-0.2,0-0.3,0c-0.9,0.1-1.4-0.2-1.4-1h-0.1c-0.4,0.7-1,1.1-1.7,1.1
				c-1.4,0-2.1-0.7-2-2.2c0-0.9,0.4-1.5,1.1-1.9c0.4-0.1,0.8-0.3,1.4-0.5c0.6-0.3,0.9-0.4,1-0.4c0.1-0.1,0.2-0.3,0.2-0.7
				c0-0.1,0-0.1,0-0.2c0-0.8-0.4-1.2-1.3-1.2c-0.9,0-1.2,0.4-1.1,1.4h-1c-0.1-1.5,0.7-2.3,2.3-2.3c1.4,0,2.1,0.7,2.1,2.1v4.5
				c0,0.4,0,0.6,0.2,0.6C140.7,36.9,140.9,36.9,141.2,36.9z M139.3,35.4v-1.9c-0.2,0.1-0.5,0.3-1,0.5c-0.4,0.2-0.6,0.3-0.8,0.4
				c-0.4,0.2-0.7,0.7-0.7,1.3c0,0.9,0.3,1.3,1.1,1.3C138.8,36.9,139.3,36.4,139.3,35.4z"/>
			<path class="st6" d="M145,29.9v0.8h0.1c0.5-0.7,1.2-1,1.9-1c1.3,0,1.9,0.7,2,2v6h-1.1V32c0-0.9-0.4-1.4-1.1-1.4
				c-0.4,0-0.8,0.2-1.1,0.4c-0.4,0.3-0.5,0.8-0.5,1.4v5.2h-1.1v-7.8H145z"/>
			<path class="st6" d="M153.6,27.8v2.1h1.3v0.9h-1.3v5.3c0,0,0,0.1-0.1,0.1c0,0.4,0.2,0.5,0.6,0.5h0.7v0.9h-1.2
				c-0.8,0-1.2-0.4-1.1-1.3v-5.6h-1.1v-0.9h1.1v-2.1H153.6z"/>
			<path class="st6" d="M161.9,32h-1c0-0.9-0.4-1.4-1.3-1.4c-0.8,0-1.2,0.4-1.2,1.1c0,0.6,0.4,1,1.1,1.4c0.1,0,0.3,0.1,0.4,0.1
				c0.1,0.1,0.2,0.1,0.3,0.2c1.3,0.4,2,1.1,1.9,2.1c-0.1,1.5-0.9,2.2-2.6,2.3c-0.9,0-1.6-0.3-1.9-0.7c-0.3-0.4-0.5-0.9-0.5-1.5
				c0-0.1,0-0.1,0.1-0.2h1c-0.1,1.1,0.4,1.6,1.3,1.5c1,0,1.5-0.4,1.5-1.3c0-0.6-0.5-1-1.4-1.3c-0.2-0.1-0.4-0.2-0.5-0.3
				c-1.3-0.4-2-1.1-1.9-2.2c0-1.4,0.8-2.1,2.2-2.2C161.1,29.7,161.9,30.5,161.9,32z"/>
			<path class="st6" d="M171.4,27.8v2.1h1.3v0.9h-1.3v5.3c0,0,0,0.1-0.1,0.1c0,0.4,0.2,0.5,0.6,0.5h0.7v0.9h-1.2
				c-0.8,0-1.2-0.4-1.1-1.3v-5.6h-1.1v-0.9h1.1v-2.1H171.4z"/>
			<path class="st6" d="M180.6,33.5c0,2.9-0.9,4.3-2.8,4.3c-1.9,0-2.8-1.4-2.8-4.3c0-2.5,0.9-3.8,2.8-3.8
				C179.7,29.7,180.6,31,180.6,33.5z M179.5,33.9c0-2.2-0.5-3.3-1.6-3.2c-1.2-0.1-1.7,1-1.6,3.2c0,2.2,0.5,3.2,1.6,3.1
				C178.9,37,179.5,36,179.5,33.9z"/>
		</g>
		<g>
			<path class="st4" d="M79.9,59.2v3.2c-0.7,0.2-1.2,0.3-1.8,0.3c-1.8,0-3.3-0.7-4.4-2c-1.1-1.3-1.7-3.1-1.7-5.3
				c0-2,0.6-3.7,1.7-5.1c1.1-1.3,2.6-2,4.3-2c0.7,0,1.3,0.1,1.8,0.3v3.3c-0.6-0.2-1.2-0.3-1.7-0.3c-0.8,0-1.5,0.4-2,1.1
				s-0.8,1.7-0.8,2.8c0,1.2,0.3,2.2,0.8,2.9c0.5,0.7,1.3,1.1,2.1,1.1C78.8,59.5,79.3,59.4,79.9,59.2z"/>
			<path class="st4" d="M81.6,48h3v6.2h0.1c0.7-1,1.6-1.5,2.5-1.5c0.7,0,1.2,0.2,1.6,0.7c0.4,0.4,0.6,1.1,0.6,1.9v7.2h-3v-5.8
				c0-0.4-0.1-0.7-0.2-0.9c-0.1-0.2-0.4-0.3-0.6-0.3c-0.6,0-0.9,0.4-0.9,1.3v5.7h-3V48z"/>
			<path class="st4" d="M96.2,62.5v-1.2h0c-0.4,0.5-0.7,0.9-1.1,1.2c-0.3,0.3-0.7,0.4-1.2,0.4c-0.9,0-1.6-0.5-2.1-1.4
				s-0.8-2.2-0.8-3.7c0-1.5,0.3-2.7,0.8-3.6s1.3-1.3,2.1-1.3c0.5,0,0.9,0.1,1.2,0.4c0.3,0.2,0.7,0.6,1,1.1h0V53h3v9.4H96.2z
				 M96.2,57.7c0-1.6-0.4-2.3-1.1-2.3c-0.8,0-1.2,0.8-1.2,2.3c0,1.6,0.4,2.4,1.2,2.4C95.8,60.1,96.2,59.3,96.2,57.7z"/>
			<path class="st4" d="M104.4,53v1.3h0.1c0.7-1.1,1.5-1.6,2.6-1.6c0.7,0,1.2,0.2,1.6,0.7c0.4,0.4,0.6,1,0.6,1.8v7.3h-3v-5.8
				c0-0.3-0.1-0.6-0.2-0.8c-0.2-0.2-0.3-0.3-0.6-0.3c-0.6,0-1,0.4-1,1.2v5.7h-3V53H104.4z"/>
			<path class="st4" d="M116.1,62.5v-1.3c-0.6,0.9-1.3,1.3-2.1,1.3c-1,0-1.8-0.4-2.4-1.3c-0.6-0.8-0.8-2-0.8-3.6
				c0-1.5,0.3-2.7,0.8-3.6c0.5-0.9,1.3-1.3,2.2-1.3c0.8,0,1.6,0.4,2.1,1.3h0v-1h3v8.7c0,0.8-0.1,1.6-0.4,2.3
				c-0.3,0.7-0.8,1.3-1.5,1.7s-1.5,0.6-2.4,0.6s-1.7-0.2-2.4-0.7s-1.2-1.2-1.5-2.3h2.7c0.3,0.5,0.7,0.7,1.1,0.7c0.4,0,0.7-0.2,1-0.5
				C115.9,63.3,116.1,63,116.1,62.5z M116.1,57.6c0-1.5-0.4-2.3-1.1-2.3c-0.4,0-0.7,0.2-0.9,0.6s-0.3,0.9-0.3,1.5
				c0,1.7,0.4,2.6,1.2,2.6C115.7,59.9,116.1,59.1,116.1,57.6z"/>
			<path class="st4" d="M125.7,59.6h2.5c-0.5,2.1-1.7,3.2-3.6,3.2c-1.2,0-2.1-0.5-2.8-1.4s-1-2.2-1-3.8c0-1.5,0.3-2.7,1-3.6
				c0.7-0.9,1.6-1.3,2.8-1.3c0.7,0,1.4,0.2,2,0.7c0.6,0.4,1.1,1,1.4,1.7c0.3,0.7,0.5,1.8,0.5,3.4h-5c0,1.4,0.4,2.1,1.2,2.1
				c0.3,0,0.5-0.1,0.7-0.3S125.7,59.9,125.7,59.6z M123.6,56.9h2.2c0-0.7-0.1-1.2-0.3-1.5c-0.2-0.3-0.4-0.5-0.8-0.5
				c-0.4,0-0.7,0.2-0.9,0.5S123.6,56.2,123.6,56.9z"/>
			<path class="st4" d="M140.5,59.6V62c-0.7,0.5-1.4,0.7-2.1,0.7c-1.1,0-1.9-0.5-2.5-1.4c-0.6-0.9-1-2.2-1-3.7c0-1.5,0.3-2.7,1-3.6
				s1.5-1.4,2.5-1.4c0.7,0,1.4,0.3,2.1,0.8v2.4c-0.4-0.2-0.8-0.3-1.1-0.3c-0.5,0-0.9,0.2-1.2,0.6c-0.3,0.4-0.4,0.9-0.4,1.5
				c0,0.7,0.1,1.2,0.4,1.6s0.7,0.6,1.2,0.6C139.7,59.9,140.1,59.8,140.5,59.6z"/>
			<path class="st4" d="M147,62.5v-1.2h0c-0.4,0.5-0.7,0.9-1.1,1.2c-0.3,0.3-0.7,0.4-1.2,0.4c-0.9,0-1.6-0.5-2.1-1.4
				s-0.8-2.2-0.8-3.7c0-1.5,0.3-2.7,0.8-3.6s1.3-1.3,2.1-1.3c0.5,0,0.9,0.1,1.2,0.4c0.3,0.2,0.7,0.6,1,1.1h0V53h3v9.4H147z
				 M147,57.7c0-1.6-0.4-2.3-1.1-2.3c-0.8,0-1.2,0.8-1.2,2.3c0,1.6,0.4,2.4,1.2,2.4C146.6,60.1,147,59.3,147,57.7z"/>
			<path class="st4" d="M155.1,53v1.6h0c0.7-1.2,1.5-1.8,2.2-1.8c0.1,0,0.3,0,0.5,0.1v2.9c-0.4-0.1-0.7-0.1-1-0.1
				c-1.1,0-1.6,0.7-1.6,2.1v4.7h-3V53H155.1z"/>
			<path class="st4" d="M163.9,59.6h2.5c-0.5,2.1-1.7,3.2-3.6,3.2c-1.2,0-2.1-0.5-2.8-1.4s-1-2.2-1-3.8c0-1.5,0.3-2.7,1-3.6
				c0.7-0.9,1.6-1.3,2.8-1.3c0.7,0,1.4,0.2,2,0.7c0.6,0.4,1.1,1,1.4,1.7s0.5,1.8,0.5,3.4h-5c0,1.4,0.4,2.1,1.2,2.1
				c0.3,0,0.5-0.1,0.7-0.3S163.8,59.9,163.9,59.6z M161.7,56.9h2.2c0-0.7-0.1-1.2-0.3-1.5c-0.2-0.3-0.4-0.5-0.8-0.5
				c-0.4,0-0.7,0.2-0.9,0.5S161.7,56.2,161.7,56.9z"/>
			<path class="st4" d="M172.8,59.6h2.5c-0.5,2.1-1.7,3.2-3.6,3.2c-1.2,0-2.1-0.5-2.8-1.4s-1-2.2-1-3.8c0-1.5,0.3-2.7,1-3.6
				c0.7-0.9,1.6-1.3,2.8-1.3c0.7,0,1.4,0.2,2,0.7c0.6,0.4,1.1,1,1.4,1.7s0.5,1.8,0.5,3.4h-5c0,1.4,0.4,2.1,1.2,2.1
				c0.3,0,0.5-0.1,0.7-0.3S172.8,59.9,172.8,59.6z M170.6,56.9h2.2c0-0.7-0.1-1.2-0.3-1.5c-0.2-0.3-0.4-0.5-0.8-0.5
				c-0.4,0-0.7,0.2-0.9,0.5S170.6,56.2,170.6,56.9z"/>
			<path class="st4" d="M180.2,53v1.6h0c0.7-1.2,1.5-1.8,2.2-1.8c0.1,0,0.3,0,0.5,0.1v2.9c-0.4-0.1-0.7-0.1-1-0.1
				c-1.1,0-1.6,0.7-1.6,2.1v4.7h-3V53H180.2z"/>
			<path class="st4" d="M184.9,59.4c1,0.6,1.8,0.9,2.2,0.9c0.2,0,0.5-0.1,0.6-0.2c0.2-0.1,0.2-0.3,0.2-0.5c0-0.2-0.1-0.3-0.2-0.4
				s-0.6-0.3-1.5-0.7c-0.7-0.3-1.2-0.7-1.5-1.1c-0.3-0.4-0.5-1-0.5-1.6c0-0.9,0.3-1.7,0.9-2.2c0.6-0.6,1.4-0.9,2.4-0.9
				c0.9,0,2.1,0.4,3.5,1.1l-1.1,2.1c-0.9-0.5-1.6-0.8-2.2-0.8c-0.5,0-0.7,0.2-0.7,0.6c0,0.2,0.1,0.4,0.3,0.5c0.2,0.1,0.5,0.3,1,0.5
				c0.9,0.3,1.5,0.7,2,1.1c0.4,0.4,0.6,1,0.6,1.7c0,1-0.3,1.7-1,2.4c-0.6,0.6-1.5,0.9-2.5,0.9c-1.1,0-2.2-0.4-3.5-1.1L184.9,59.4z"
				/>
		</g>
	</g>
</g>
</svg>
